<svg width="156" height="73" viewBox="0 0 156 73" fill="none" xmlns="http://www.w3.org/2000/svg">
<path d="M76.3014 0.0645332C74.8907 0.294308 73.8451 0.759323 72.7853 1.61824C71.8472 2.38415 71.3316 3.13365 71.0666 4.11839C70.8231 5.01013 70.9234 6.08788 71.3173 6.97414C71.8543 8.17225 72.8569 9.05852 74.7976 10.0487C75.8288 10.5685 75.836 10.5739 75.9362 10.8475C76.0007 11.0335 76.0293 11.4875 76.0365 12.2972C76.0436 13.3312 76.0221 13.5117 75.9004 13.7689C75.6569 14.2886 75.6426 14.2941 73.6303 14.2941H71.8973L71.2958 13.8947C70.4364 13.3203 70.2502 13.2546 69.4625 13.2546C68.8825 13.2546 68.7822 13.271 68.4313 13.4187C67.6293 13.7579 67.2354 14.3597 67.2927 15.1694C67.3285 15.7438 67.572 16.1432 68.1449 16.5754C68.596 16.92 68.8681 17.0021 69.4983 17.0021C69.9924 17.0021 70.3791 16.8653 70.7515 16.5644C71.1525 16.2417 71.7254 15.9736 72.241 15.8696C73.2078 15.6782 74.9694 15.804 75.6712 16.1213L75.929 16.2417L75.972 19.6445C76.0723 27.6264 76.0794 30.4712 76.015 30.7502C75.7858 31.6638 74.8262 32.4243 73.4226 32.7963C72.7137 32.9823 71.4104 33.0315 70.4293 32.9002C68.7034 32.6705 66.9346 32.0304 65.0584 30.9472C64.6072 30.69 64.0129 30.3125 63.7336 30.1156L63.2323 29.76L63.8195 29.3442C64.4569 28.8901 64.7003 28.633 64.7003 28.4251C64.7003 28.3157 64.5643 28.2227 63.9699 27.9163C61.8932 26.8441 59.8809 25.5803 59.2364 24.9348C59.0359 24.7378 58.8282 24.5792 58.7637 24.5792C58.5346 24.5792 58.1479 25.8921 58.0405 27.0629C57.8686 28.8792 58.2553 30.8049 58.9929 31.8553C59.1934 32.1453 59.2507 32.1836 59.4584 32.2C59.6517 32.2164 59.7663 32.1726 60.0671 31.9757C60.5254 31.6802 60.6972 31.6091 60.9622 31.6091C61.1341 31.6091 61.22 31.6693 61.5494 32.0304C62.9029 33.513 64.7648 34.9518 66.462 35.8216C67.7224 36.4781 68.818 36.8501 71.5034 37.5449C74.5111 38.3218 74.948 38.4695 76.2012 39.1315C76.9173 39.5144 77.2968 39.8536 77.6692 40.428C77.7981 40.6359 77.9485 40.8 77.9986 40.8C78.0416 40.8 78.1848 40.6523 78.3066 40.4773C78.7147 39.8919 79.216 39.4871 80.104 39.033C81.0851 38.5351 81.1997 38.4914 83.9281 37.7036C87.1649 36.7626 87.8023 36.5438 89.0555 35.9529C90.8959 35.0831 92.7363 33.7591 94.2903 32.1836C94.6412 31.8225 94.9992 31.5106 95.078 31.4888C95.2785 31.4286 95.6151 31.5599 96.0233 31.8553C96.231 32.0085 96.41 32.096 96.4744 32.0796C96.5317 32.0632 96.6391 32.0468 96.7036 32.0468C96.854 32.0468 97.255 31.4176 97.4985 30.8159C97.9067 29.7819 98.1143 27.8124 97.9353 26.6362C97.8279 25.9414 97.5773 25.1591 97.3123 24.7159C97.0187 24.2071 96.9829 24.2071 96.6463 24.6995C96.0448 25.5748 95.3143 26.1164 93.4524 27.0519C91.655 27.9546 91.1967 28.2227 91.1967 28.3431C91.1967 28.4142 91.4974 28.6822 91.9772 29.0488L92.7578 29.6396L92.2135 30.0281C91.1823 30.7666 89.5424 31.6365 88.2964 32.1124C86.0335 32.9823 83.6345 33.1683 82.0662 32.5939C80.7485 32.1124 79.9751 31.1003 79.8462 29.6889C79.8032 29.2129 79.7316 23.3701 79.7101 18.9442C79.703 17.0459 79.7531 16.5097 79.9679 16.1541C80.1183 15.9025 80.6411 15.8259 82.3168 15.8259C83.7777 15.8259 83.7848 15.8259 84.1071 15.9736C84.2861 16.0502 84.6657 16.2745 84.9521 16.4714C85.3531 16.7504 85.5537 16.8435 85.8329 16.8927C86.5491 17.024 87.1434 16.8708 87.7521 16.3894C88.1961 16.0392 88.3823 15.7602 88.4897 15.3007C88.633 14.6661 88.3823 14.0315 87.8237 13.6047C87.3869 13.271 86.9787 13.1507 86.2913 13.1507C85.5895 13.1507 85.3961 13.2163 84.7158 13.7196C84.4437 13.922 84.1071 14.1299 83.971 14.1792C83.5987 14.3269 82.3956 14.398 81.3859 14.3324C80.3332 14.2612 80.0825 14.1846 79.9393 13.9056C79.6958 13.4351 79.5383 11.8924 79.66 11.1593C79.7818 10.4372 79.8176 10.3989 80.7986 10.0542C81.5219 9.7916 81.7153 9.69313 82.238 9.31564C83.0258 8.74121 83.4698 8.28713 83.8994 7.6197C84.501 6.66778 84.7301 5.73227 84.6012 4.70377C84.3291 2.49356 82.3741 0.731968 79.5598 0.17395C78.6718 -0.00111771 77.0534 -0.0558243 76.3014 0.0645332ZM78.9725 2.42244C79.9894 2.58657 80.8989 3.068 81.2713 3.63696C81.7296 4.34269 81.8298 5.44232 81.4933 6.19729C81.035 7.25315 80.0754 7.9753 78.8365 8.1996C78.2922 8.29807 77.1966 8.28166 76.6953 8.17225C75.5781 7.92059 74.5756 7.3188 74.1674 6.65684C73.8666 6.16447 73.7592 5.78151 73.7664 5.18519C73.7664 3.97615 74.5971 3.06253 76.1009 2.60845C76.9531 2.35132 78.0846 2.27473 78.9725 2.42244Z" fill="#41644A"/>
<path d="M5.45354 72.3078H2V45.8H5.45354C8.90708 45.8 11.833 47.1381 14.2313 49.8141C16.6295 52.4901 17.8287 55.57 17.8287 59.0539C17.8287 62.5378 16.6295 65.6178 14.2313 68.2937C11.833 70.9697 8.90708 72.3078 5.45354 72.3078ZM5.45354 71.1717C8.5953 71.1717 11.2574 69.9599 13.4398 67.5364C15.6463 65.0876 16.7495 62.26 16.7495 59.0539C16.7495 55.8477 15.6463 53.0329 13.4398 50.6093C11.2574 48.1605 8.5953 46.9361 5.45354 46.9361H3.07923V71.1717H5.45354ZM33.6853 51.5181C32.8699 51.2404 31.8626 51.1016 30.6634 51.1016C29.4642 51.1016 28.4569 51.2404 27.6416 51.5181C26.8262 51.7706 26.0707 52.2629 25.3752 52.995C24.7037 53.7019 24.2001 54.7496 23.8643 56.1381C23.5284 57.5013 23.3606 59.2306 23.3606 61.326C23.3606 63.4214 23.5284 65.1634 23.8643 66.5518C24.2001 67.9151 24.7037 68.9627 25.3752 69.6949C26.0707 70.4017 26.8262 70.894 27.6416 71.1717C28.4569 71.4241 29.4642 71.5504 30.6634 71.5504C31.8626 71.5504 32.8699 71.4241 33.6853 71.1717C34.5006 70.894 35.2442 70.4017 35.9157 69.6949C36.6112 68.9627 37.1268 67.9151 37.4626 66.5518C37.7984 65.1634 37.9662 63.4214 37.9662 61.326C37.9662 59.2306 37.7984 57.5013 37.4626 56.1381C37.1268 54.7496 36.6112 53.7019 35.9157 52.995C35.2442 52.2629 34.5006 51.7706 33.6853 51.5181ZM37.1028 69.9978C35.8077 71.7903 33.6613 72.6864 30.6634 72.6864C27.6655 72.6864 25.5191 71.7903 24.224 69.9978C22.9289 68.2053 22.2814 65.3148 22.2814 61.326C22.2814 57.3372 22.9289 54.4466 24.224 52.6542C25.5191 50.8618 27.6655 49.9655 30.6634 49.9655C33.6613 49.9655 35.8077 50.8618 37.1028 52.6542C38.3979 54.4466 39.0454 57.3372 39.0454 61.326C39.0454 65.3148 38.3979 68.2053 37.1028 69.9978ZM46.0405 69.9978C44.7454 68.2053 44.0979 65.3148 44.0979 61.326C44.0979 57.3372 44.7454 54.4466 46.0405 52.6542C47.3356 50.8618 49.482 49.9655 52.4799 49.9655C55.4778 49.9655 57.6363 50.8365 58.9553 52.5785L58.1639 53.3358C57.1086 51.8463 55.214 51.1016 52.4799 51.1016C51.2807 51.1016 50.2734 51.2404 49.4581 51.5181C48.6427 51.7706 47.8872 52.2629 47.1917 52.995C46.5202 53.7019 46.0166 54.7496 45.6808 56.1381C45.345 57.5013 45.1771 59.2306 45.1771 61.326C45.1771 63.4214 45.345 65.1634 45.6808 66.5518C46.0166 67.9151 46.5202 68.9627 47.1917 69.6949C47.8872 70.4017 48.6427 70.894 49.4581 71.1717C50.2734 71.4241 51.2807 71.5504 52.4799 71.5504C55.214 71.5504 57.1086 70.8057 58.1639 69.3162L58.9553 70.0735C57.6363 71.8155 55.4778 72.6864 52.4799 72.6864C49.482 72.6864 47.3356 71.7903 46.0405 69.9978ZM64.3194 72.3078V50.3442H65.3986V72.3078H64.3194ZM77.6299 72.3078L66.5498 60.7201L76.4787 50.3442H78.0256L68.0967 60.7201L79.1768 72.3078H77.6299ZM81.2147 50.3442L89.0571 69.7706L94.4893 56.3274L99.8854 69.7706L107.26 51.4803H84.0567V50.3442H108.879L99.8854 72.6864L94.4893 59.2432L89.0571 72.6864L80.0635 50.3442H81.2147ZM112.941 50.3442H114.02V72.3078H112.941V50.3442ZM126.35 49.8898C129.324 49.8898 131.434 50.5841 132.681 51.9726L131.962 52.8057C130.81 51.6191 128.988 51.0259 126.493 51.0259C122.752 51.0259 120.881 52.5911 120.881 55.7215C120.881 56.9333 121.337 57.9052 122.248 58.6374C123.16 59.3442 124.263 59.887 125.558 60.2657C126.877 60.6444 128.184 61.0482 129.479 61.4775C130.798 61.8813 131.914 62.5504 132.825 63.4845C133.736 64.3933 134.192 65.5924 134.192 67.082C134.192 68.8239 133.508 70.2123 132.141 71.2475C130.774 72.2826 128.796 72.8 126.206 72.8C124.935 72.8 123.676 72.6234 122.428 72.2699C121.205 71.9164 120.294 71.3989 119.694 70.7173L120.414 69.8842C121.637 71.0708 123.52 71.664 126.062 71.664C128.388 71.664 130.139 71.2096 131.314 70.3008C132.513 69.3919 133.113 68.3316 133.113 67.1198C133.113 65.8575 132.657 64.8351 131.746 64.0525C130.834 63.2699 129.719 62.6892 128.4 62.3106C127.105 61.9067 125.798 61.5027 124.479 61.0988C123.184 60.6696 122.081 60.0133 121.169 59.1296C120.258 58.246 119.802 57.0848 119.802 55.6458C119.802 53.7019 120.414 52.2629 121.637 51.3288C122.884 50.3695 124.455 49.8898 126.35 49.8898ZM153.388 70.0735C152.068 71.8155 149.91 72.6864 146.913 72.6864C143.915 72.6864 141.769 71.7903 140.474 69.9978C139.178 68.2053 138.531 65.3148 138.531 61.326C138.531 57.3372 139.178 54.4466 140.474 52.6542C141.769 50.8618 143.915 49.9655 146.913 49.9655C150.39 49.9655 152.752 51.1647 154 53.563L145.186 61.326H143.495L152.597 53.3358C151.541 51.8463 149.647 51.1016 146.913 51.1016C145.713 51.1016 144.706 51.2404 143.891 51.5181C143.075 51.7706 142.319 52.2629 141.625 52.995C140.952 53.7019 140.449 54.7496 140.114 56.1381C139.778 57.5013 139.61 59.2306 139.61 61.326C139.61 63.4214 139.778 65.1634 140.114 66.5518C140.449 67.9151 140.952 68.9627 141.625 69.6949C142.319 70.4017 143.075 70.894 143.891 71.1717C144.706 71.4241 145.713 71.5504 146.913 71.5504C149.647 71.5504 151.541 70.8057 152.597 69.3162L153.388 70.0735Z" fill="#41644A"/>
</svg>
