<svg width="147" height="42" viewBox="0 0 147 42" fill="none" xmlns="http://www.w3.org/2000/svg">
<path d="M11.4384 8.0403C10.5567 8.18391 9.90322 8.47454 9.24081 9.01137C8.65449 9.49006 8.33224 9.9585 8.16663 10.574C8.01446 11.1313 8.07712 11.8049 8.32329 12.3588C8.65896 13.1076 9.28557 13.6615 10.4985 14.2804C11.143 14.6053 11.1475 14.6087 11.2101 14.7796C11.2504 14.8959 11.2683 15.1797 11.2728 15.6857C11.2773 16.332 11.2638 16.4448 11.1878 16.6055C11.0356 16.9303 11.0266 16.9338 9.76895 16.9338H8.68582L8.30986 16.6842C7.77277 16.3251 7.6564 16.2841 7.16407 16.2841C6.80154 16.2841 6.73888 16.2944 6.51957 16.3867C6.01828 16.5987 5.77212 16.9748 5.80793 17.4808C5.8303 17.8399 5.98248 18.0895 6.34054 18.3596C6.62251 18.575 6.79259 18.6263 7.18645 18.6263C7.49528 18.6263 7.73696 18.5408 7.9697 18.3527C8.22034 18.151 8.5784 17.9835 8.90065 17.9185C9.50488 17.7988 10.6059 17.8775 11.0445 18.0758L11.2057 18.151L11.2325 20.2778C11.2952 25.2665 11.2996 27.0445 11.2594 27.2188C11.1161 27.7899 10.5164 28.2651 9.63915 28.4976C9.19605 28.6139 8.38147 28.6447 7.76829 28.5626C6.68964 28.419 5.58414 28.0189 4.4115 27.3419C4.12953 27.1812 3.75804 26.9453 3.58349 26.8222L3.27019 26.6L3.6372 26.3401C4.03554 26.0563 4.18771 25.8956 4.18771 25.7657C4.18771 25.6973 4.10267 25.6392 3.73119 25.4477C2.43322 24.7775 1.17555 23.9877 0.77273 23.5842C0.647409 23.4611 0.517613 23.3619 0.477331 23.3619C0.334108 23.3619 0.0924187 24.1826 0.0252828 24.9143C-0.0821347 26.0495 0.159555 27.253 0.620555 27.9095C0.745875 28.0908 0.781681 28.1147 0.911477 28.1249C1.03232 28.1352 1.10393 28.1079 1.29191 27.9848C1.57836 27.8001 1.68578 27.7557 1.85138 27.7557C1.9588 27.7557 2.01251 27.7933 2.21839 28.0189C3.0643 28.9456 4.22799 29.8448 5.28874 30.3885C6.07647 30.7988 6.76126 31.0313 8.43965 31.4655C10.3195 31.9511 10.5925 32.0434 11.3757 32.4571C11.8233 32.6965 12.0605 32.9085 12.2933 33.2675C12.3738 33.3974 12.4678 33.5 12.4991 33.5C12.526 33.5 12.6155 33.4077 12.6916 33.2983C12.9467 32.9324 13.26 32.6794 13.815 32.3956C14.4282 32.0844 14.4998 32.0571 16.205 31.5647C18.2281 30.9766 18.6264 30.8398 19.4097 30.4705C20.5599 29.9269 21.7102 29.0994 22.6814 28.1147C22.9007 27.889 23.1245 27.6941 23.1738 27.6804C23.2991 27.6428 23.5094 27.7249 23.7645 27.9095C23.8943 28.0053 24.0062 28.06 24.0465 28.0497C24.0823 28.0395 24.1495 28.0292 24.1897 28.0292C24.2837 28.0292 24.5344 27.636 24.6866 27.2599C24.9417 26.6136 25.0715 25.3827 24.9596 24.6476C24.8924 24.2133 24.7358 23.7244 24.5702 23.4474C24.3867 23.1294 24.3643 23.1294 24.1539 23.4372C23.778 23.9842 23.3215 24.3227 22.1578 24.9074C21.0344 25.4716 20.7479 25.6392 20.7479 25.7144C20.7479 25.7588 20.9359 25.9264 21.2358 26.1555L21.7236 26.5247L21.3835 26.7675C20.739 27.2291 19.714 27.7728 18.9352 28.0702C17.5209 28.6139 16.0215 28.7302 15.0414 28.3711C14.2178 28.0702 13.7344 27.4377 13.6539 26.5555C13.627 26.258 13.5823 22.6063 13.5688 19.8401C13.5644 18.6536 13.5957 18.3186 13.73 18.0963C13.824 17.939 14.1507 17.8911 15.198 17.8911C16.1111 17.8911 16.1155 17.8911 16.3169 17.9835C16.4288 18.0313 16.666 18.1715 16.8451 18.2946C17.0957 18.469 17.221 18.5271 17.3956 18.5579C17.8432 18.64 18.2146 18.5442 18.5951 18.2433C18.8726 18.0245 18.9889 17.8501 19.0561 17.5629C19.1456 17.1663 18.9889 16.7696 18.6398 16.5029C18.3668 16.2944 18.1117 16.2191 17.682 16.2191C17.2434 16.2191 17.1226 16.2602 16.6974 16.5747C16.5273 16.7012 16.3169 16.8312 16.2319 16.862C15.9992 16.9543 15.2472 16.9987 14.6162 16.9577C13.9582 16.9132 13.8016 16.8654 13.7121 16.691C13.5599 16.3969 13.4614 15.4327 13.5375 14.9745C13.6136 14.5232 13.636 14.4993 14.2492 14.2838C14.7012 14.1197 14.822 14.0582 15.1488 13.8222C15.6411 13.4632 15.9186 13.1794 16.1871 12.7623C16.5631 12.1673 16.7063 11.5826 16.6258 10.9398C16.4557 9.55844 15.2338 8.45745 13.4748 8.10869C12.9199 7.99927 11.9083 7.96508 11.4384 8.0403ZM13.1078 9.514C13.7434 9.61657 14.3118 9.91747 14.5445 10.2731C14.831 10.7142 14.8937 11.4014 14.6833 11.8733C14.3968 12.5332 13.7971 12.9845 13.0228 13.1247C12.6826 13.1863 11.9979 13.176 11.6846 13.1076C10.9863 12.9503 10.3597 12.5742 10.1046 12.1605C9.91664 11.8528 9.84951 11.6134 9.85398 11.2407C9.85398 10.4851 10.3732 9.91405 11.3131 9.63025C11.8457 9.46955 12.5528 9.42168 13.1078 9.514Z" fill="white"/>
<path d="M39.496 30.162H37V11.962H39.496C41.992 11.962 44.1067 12.8807 45.84 14.718C47.5733 16.5553 48.44 18.67 48.44 21.062C48.44 23.454 47.5733 25.5687 45.84 27.406C44.1067 29.2433 41.992 30.162 39.496 30.162ZM39.496 29.382C41.7667 29.382 43.6907 28.55 45.268 26.886C46.8627 25.2047 47.66 23.2633 47.66 21.062C47.66 18.8607 46.8627 16.928 45.268 15.264C43.6907 13.5827 41.7667 12.742 39.496 12.742H37.78V29.382H39.496ZM59.9001 15.888C59.3108 15.6973 58.5828 15.602 57.7161 15.602C56.8494 15.602 56.1214 15.6973 55.5321 15.888C54.9428 16.0613 54.3968 16.3993 53.8941 16.902C53.4088 17.3873 53.0448 18.1067 52.8021 19.06C52.5594 19.996 52.4381 21.1833 52.4381 22.622C52.4381 24.0607 52.5594 25.2567 52.8021 26.21C53.0448 27.146 53.4088 27.8653 53.8941 28.368C54.3968 28.8533 54.9428 29.1913 55.5321 29.382C56.1214 29.5553 56.8494 29.642 57.7161 29.642C58.5828 29.642 59.3108 29.5553 59.9001 29.382C60.4894 29.1913 61.0268 28.8533 61.5121 28.368C62.0148 27.8653 62.3874 27.146 62.6301 26.21C62.8728 25.2567 62.9941 24.0607 62.9941 22.622C62.9941 21.1833 62.8728 19.996 62.6301 19.06C62.3874 18.1067 62.0148 17.3873 61.5121 16.902C61.0268 16.3993 60.4894 16.0613 59.9001 15.888ZM62.3701 28.576C61.4341 29.8067 59.8828 30.422 57.7161 30.422C55.5494 30.422 53.9981 29.8067 53.0621 28.576C52.1261 27.3453 51.6581 25.3607 51.6581 22.622C51.6581 19.8833 52.1261 17.8987 53.0621 16.668C53.9981 15.4373 55.5494 14.822 57.7161 14.822C59.8828 14.822 61.4341 15.4373 62.3701 16.668C63.3061 17.8987 63.7741 19.8833 63.7741 22.622C63.7741 25.3607 63.3061 27.3453 62.3701 28.576ZM68.8297 28.576C67.8937 27.3453 67.4257 25.3607 67.4257 22.622C67.4257 19.8833 67.8937 17.8987 68.8297 16.668C69.7657 15.4373 71.317 14.822 73.4837 14.822C75.6504 14.822 77.2104 15.42 78.1637 16.616L77.5917 17.136C76.829 16.1133 75.4597 15.602 73.4837 15.602C72.617 15.602 71.889 15.6973 71.2997 15.888C70.7104 16.0613 70.1644 16.3993 69.6617 16.902C69.1764 17.3873 68.8124 18.1067 68.5697 19.06C68.327 19.996 68.2057 21.1833 68.2057 22.622C68.2057 24.0607 68.327 25.2567 68.5697 26.21C68.8124 27.146 69.1764 27.8653 69.6617 28.368C70.1644 28.8533 70.7104 29.1913 71.2997 29.382C71.889 29.5553 72.617 29.642 73.4837 29.642C75.4597 29.642 76.829 29.1307 77.5917 28.108L78.1637 28.628C77.2104 29.824 75.6504 30.422 73.4837 30.422C71.317 30.422 69.7657 29.8067 68.8297 28.576ZM82.0405 30.162V15.082H82.8205V30.162H82.0405ZM91.6605 30.162L83.6525 22.206L90.8285 15.082H91.9465L84.7705 22.206L92.7785 30.162H91.6605ZM94.2514 15.082L99.9194 28.42L103.845 19.19L107.745 28.42L113.075 15.862H96.3054V15.082H114.245L107.745 30.422L103.845 21.192L99.9194 30.422L93.4194 15.082H94.2514ZM117.181 15.082H117.961V30.162H117.181V15.082ZM126.872 14.77C129.021 14.77 130.547 15.2467 131.448 16.2L130.928 16.772C130.096 15.9573 128.779 15.55 126.976 15.55C124.272 15.55 122.92 16.6247 122.92 18.774C122.92 19.606 123.249 20.2733 123.908 20.776C124.567 21.2613 125.364 21.634 126.3 21.894C127.253 22.154 128.198 22.4313 129.134 22.726C130.087 23.0033 130.893 23.4627 131.552 24.104C132.211 24.728 132.54 25.5513 132.54 26.574C132.54 27.77 132.046 28.7233 131.058 29.434C130.07 30.1447 128.64 30.5 126.768 30.5C125.849 30.5 124.939 30.3787 124.038 30.136C123.154 29.8933 122.495 29.538 122.062 29.07L122.582 28.498C123.466 29.3127 124.827 29.72 126.664 29.72C128.345 29.72 129.611 29.408 130.46 28.784C131.327 28.16 131.76 27.432 131.76 26.6C131.76 25.7333 131.431 25.0313 130.772 24.494C130.113 23.9567 129.307 23.558 128.354 23.298C127.418 23.0207 126.473 22.7433 125.52 22.466C124.584 22.1713 123.787 21.7207 123.128 21.114C122.469 20.5073 122.14 19.71 122.14 18.722C122.14 17.3873 122.582 16.3993 123.466 15.758C124.367 15.0993 125.503 14.77 126.872 14.77ZM146.414 28.628C145.46 29.824 143.9 30.422 141.734 30.422C139.567 30.422 138.016 29.8067 137.08 28.576C136.144 27.3453 135.676 25.3607 135.676 22.622C135.676 19.8833 136.144 17.8987 137.08 16.668C138.016 15.4373 139.567 14.822 141.734 14.822C144.247 14.822 145.954 15.6453 146.856 17.292L140.486 22.622H139.264L145.842 17.136C145.079 16.1133 143.71 15.602 141.734 15.602C140.867 15.602 140.139 15.6973 139.55 15.888C138.96 16.0613 138.414 16.3993 137.912 16.902C137.426 17.3873 137.062 18.1067 136.82 19.06C136.577 19.996 136.456 21.1833 136.456 22.622C136.456 24.0607 136.577 25.2567 136.82 26.21C137.062 27.146 137.426 27.8653 137.912 28.368C138.414 28.8533 138.96 29.1913 139.55 29.382C140.139 29.5553 140.867 29.642 141.734 29.642C143.71 29.642 145.079 29.1307 145.842 28.108L146.414 28.628Z" fill="white"/>
</svg>
